<svg width="128" height="128" viewBox="0 0 128 128" fill="none" xmlns="http://www.w3.org/2000/svg">
<path fill-rule="evenodd" clip-rule="evenodd" d="M62.9508 18.8851C62.9508 21.5892 60.7587 23.7813 58.0546 23.7813C55.3506 23.7813 53.1585 21.5892 53.1585 18.8851C53.1585 16.181 55.3506 13.9889 58.0546 13.9889C60.7587 13.9889 62.9508 16.181 62.9508 18.8851ZM60.153 18.8851C60.153 20.044 59.2135 20.9834 58.0546 20.9834C56.8958 20.9834 55.9563 20.044 55.9563 18.8851C55.9563 17.7262 56.8958 16.7867 58.0546 16.7867C59.2135 16.7867 60.153 17.7262 60.153 18.8851Z" fill="black"/>
<path fill-rule="evenodd" clip-rule="evenodd" d="M74.8415 18.8851C74.8415 21.5892 72.6494 23.7813 69.9454 23.7813C67.2413 23.7813 65.0492 21.5892 65.0492 18.8851C65.0492 16.181 67.2413 13.9889 69.9454 13.9889C72.6494 13.9889 74.8415 16.181 74.8415 18.8851ZM72.0437 18.8851C72.0437 20.044 71.1042 20.9834 69.9454 20.9834C68.7865 20.9834 67.847 20.044 67.847 18.8851C67.847 17.7262 68.7865 16.7867 69.9454 16.7867C71.1042 16.7867 72.0437 17.7262 72.0437 18.8851Z" fill="black"/>
<path d="M116.935 53.323C115.974 53.3358 115.018 53.4762 114.093 53.7405L105.604 45.2072C106.639 43.0813 107.183 40.748 107.195 38.3814V34.016C107.195 33.489 106.987 32.9836 106.616 32.6109C106.245 32.2383 105.742 32.029 105.218 32.029H80.9253V17.4005H86.2424V22.8433C86.2424 23.3703 86.4508 23.8757 86.8216 24.2483C87.1925 24.6209 87.6956 24.8303 88.2201 24.8303C88.7446 24.8303 89.2476 24.6209 89.6185 24.2483C89.9894 23.8757 90.1978 23.3703 90.1978 22.8433V8.30429C90.1978 7.77731 89.9894 7.27191 89.6185 6.89927C89.2476 6.52664 88.7446 6.31729 88.2201 6.31729C87.6956 6.31729 87.1925 6.52664 86.8216 6.89927C86.4508 7.27191 86.2424 7.77731 86.2424 8.30429V13.4377H80.9253V8.28192C80.9258 8.02085 80.875 7.76225 80.7758 7.52095C80.6765 7.27966 80.5309 7.06042 80.3471 6.87581C80.1634 6.6912 79.9452 6.54486 79.705 6.44518C79.4649 6.34549 79.2075 6.29443 78.9476 6.29493H49.0635C48.8037 6.29443 48.5463 6.34549 48.3061 6.44518C48.0659 6.54486 47.8477 6.6912 47.664 6.87581C47.4802 7.06042 47.3346 7.27966 47.2354 7.52095C47.1362 7.76225 47.0853 8.02085 47.0858 8.28192V13.4153H41.7687V8.28192C41.7687 7.75494 41.5604 7.24954 41.1895 6.8769C40.8186 6.50427 40.3156 6.29493 39.7911 6.29493C39.2665 6.29493 38.7635 6.50427 38.3926 6.8769C38.0217 7.24954 37.8134 7.75494 37.8134 8.28192V22.8209C37.8134 23.3479 38.0217 23.8533 38.3926 24.2259C38.7635 24.5986 39.2665 24.8079 39.7911 24.8079C40.3156 24.8079 40.8186 24.5986 41.1895 24.2259C41.5604 23.8533 41.7687 23.3479 41.7687 22.8209V17.4005H47.0858V32.0401H22.7934C22.2689 32.0401 21.7659 32.2495 21.395 32.6221C21.0241 32.9947 20.8157 33.5002 20.8157 34.0271V38.3926C20.8283 40.7592 21.3724 43.0925 22.4075 45.2184L13.9143 53.7405C12.9906 53.4762 12.0361 53.3358 11.0757 53.323C8.13918 53.326 5.32373 54.4993 3.24727 56.5856C1.1708 58.6718 0.00294688 61.5005 0 64.4509C0 64.9779 0.208361 65.4833 0.579248 65.8559C0.950135 66.2286 1.45317 66.4379 1.97768 66.4379C2.50219 66.4379 3.00522 66.2286 3.37611 65.8559C3.747 65.4833 3.95536 64.9779 3.95536 64.4509C3.95536 63.036 4.37296 61.6529 5.15536 60.4764C5.93776 59.3 7.04981 58.383 8.35089 57.8415C9.65197 57.3001 11.0836 57.1584 12.4649 57.4345C13.8461 57.7105 15.1148 58.3918 16.1106 59.3923C17.1064 60.3928 17.7846 61.6675 18.0593 63.0553C18.3341 64.443 18.1931 65.8814 17.6541 67.1886C17.1152 68.4958 16.2026 69.6131 15.0316 70.3992C13.8607 71.1853 12.484 71.6049 11.0757 71.6049C10.5512 71.6049 10.0482 71.8142 9.67732 72.1868C9.30643 72.5595 9.09806 73.0649 9.09806 73.5919C9.09806 74.1188 9.30643 74.6242 9.67732 74.9969C10.0482 75.3695 10.5512 75.5788 11.0757 75.5788C14.0123 75.5759 16.8278 74.4025 18.9042 72.3163C20.9807 70.23 22.1485 67.4013 22.1515 64.4509C22.1515 64.1564 22.0884 63.8768 22.0662 63.586L31.9583 53.6473C31.9954 53.61 32.0102 53.5579 32.0436 53.5169C32.9733 53.8013 33.9273 53.9985 34.8932 54.1059C34.7501 55.1686 34.6745 56.2395 34.6669 57.3119V79.2322C30.1735 81.346 15.4393 89.8271 15.4393 110.405C15.4388 110.667 15.4896 110.925 15.5887 111.167C15.6879 111.408 15.8335 111.628 16.0172 111.813C16.2009 111.998 16.4191 112.144 16.6592 112.244C16.8994 112.345 17.1569 112.396 17.4169 112.396H26.0549V112.806C26.0549 115.166 26.988 117.43 28.649 119.098C30.31 120.767 32.5628 121.705 34.9118 121.705C37.2608 121.705 39.5136 120.767 41.1746 119.098C42.8355 117.43 43.7687 115.166 43.7687 112.806V112.396H55.1264V112.806C55.1264 115.166 56.0595 117.43 57.7205 119.098C59.3815 120.767 61.6343 121.705 63.9833 121.705C66.3323 121.705 68.5851 120.767 70.2461 119.098C71.9071 117.43 72.8402 115.166 72.8402 112.806V112.396H84.2425V112.806C84.2425 115.166 85.1756 117.43 86.8366 119.098C88.4976 120.767 90.7503 121.705 93.0993 121.705C95.4483 121.705 97.7011 120.767 99.3621 119.098C101.023 117.43 101.956 115.166 101.956 112.806V112.396H110.594C110.854 112.396 111.112 112.345 111.352 112.244C111.592 112.144 111.81 111.998 111.994 111.813C112.178 111.628 112.323 111.408 112.422 111.167C112.522 110.925 112.572 110.667 112.572 110.405C112.572 89.8271 97.8376 81.3273 93.3442 79.2322V57.3119C93.3366 56.2395 93.261 55.1686 93.1179 54.1059C94.0839 53.9985 95.0378 53.8013 95.9675 53.5169C96.0009 53.5579 96.0158 53.61 96.0529 53.6473L105.934 63.586C105.912 63.8768 105.849 64.1564 105.849 64.4509C105.851 67.4013 107.019 70.23 109.096 72.3163C111.172 74.4025 113.988 75.5759 116.924 75.5788C117.449 75.5788 117.952 75.3695 118.323 74.9969C118.694 74.6242 118.902 74.1188 118.902 73.5919C118.902 73.0649 118.694 72.5595 118.323 72.1868C117.952 71.8142 117.449 71.6049 116.924 71.6049C115.516 71.6049 114.139 71.1853 112.968 70.3992C111.797 69.6131 110.885 68.4958 110.346 67.1886C109.807 65.8814 109.666 64.443 109.941 63.0553C110.215 61.6675 110.894 60.3928 111.889 59.3923C112.885 58.3918 114.154 57.7105 115.535 57.4345C116.916 57.1584 118.348 57.3001 119.649 57.8415C120.95 58.383 122.062 59.3 122.845 60.4764C123.627 61.6529 124.045 63.036 124.045 64.4509C124.045 64.9779 124.253 65.4833 124.624 65.8559C124.995 66.2286 125.498 66.4379 126.022 66.4379C126.547 66.4379 127.05 66.2286 127.421 65.8559C127.792 65.4833 128 64.9779 128 64.4509C127.997 61.5025 126.831 58.6754 124.757 56.5895C122.683 54.5036 119.87 53.3289 116.935 53.323ZM53.7239 97.6558C52.3695 93.775 47.9541 83.2882 38.6223 79.1838V57.3119C38.6273 53.757 39.5191 50.26 41.216 47.1407C42.913 44.0213 45.3609 41.3789 48.3363 39.455V63.3139C48.3412 67.4814 49.9914 71.4768 52.9248 74.4234C55.8583 77.3699 59.8353 79.027 63.9833 79.0309H64.0278C68.1758 79.027 72.1529 77.3699 75.0863 74.4234C78.0197 71.4768 79.67 67.4814 79.6749 63.3139V39.455C82.6502 41.3789 85.0982 44.0213 86.7951 47.1407C88.492 50.26 89.3838 53.757 89.3889 57.3119V79.1838C80.0571 83.2845 75.6416 93.775 74.2873 97.6558H53.7239ZM68.1761 36.0029C70.758 36.0193 73.3149 36.5121 75.7195 37.4568V63.3064C75.7156 66.4203 74.4824 69.4055 72.2905 71.607C70.0987 73.8085 67.1271 75.0465 64.0278 75.0495H63.9833C60.884 75.0465 57.9125 73.8085 55.7206 71.607C53.5287 69.4055 52.2955 66.4203 52.2916 63.3064V37.4568C54.6962 36.5121 57.2531 36.0193 59.835 36.0029H68.1761ZM51.0412 10.2801H76.9699V32.0401H51.0412V10.2801ZM20.8009 59.2467C20.04 57.8127 18.9762 56.5633 17.6841 55.5859L24.6227 48.6146C25.6511 49.8549 26.8624 50.9298 28.2144 51.802L20.8009 59.2467ZM24.7711 38.3926V36.0029H46.3437C41.2035 39.2902 37.4209 44.3353 35.6947 50.2064C32.7309 49.9675 29.9643 48.6201 27.9416 46.4305C25.919 44.2409 24.7876 41.3686 24.7711 38.3814V38.3926ZM39.8133 112.806C39.8133 114.112 39.2969 115.365 38.3777 116.288C37.4585 117.212 36.2118 117.731 34.9118 117.731C33.6118 117.731 32.3651 117.212 31.4459 116.288C30.5267 115.365 30.0103 114.112 30.0103 112.806V112.396H39.8133V112.806ZM68.8848 112.806C68.8848 114.112 68.3684 115.365 67.4492 116.288C66.53 117.212 65.2833 117.731 63.9833 117.731C62.6833 117.731 61.4366 117.212 60.5174 116.288C59.5982 115.365 59.0818 114.112 59.0818 112.806V112.396H68.8848V112.806ZM98.0009 112.806C98.0009 114.112 97.4845 115.365 96.5653 116.288C95.646 117.212 94.3993 117.731 93.0993 117.731C91.7994 117.731 90.5527 117.212 89.6334 116.288C88.7142 115.365 88.1978 114.112 88.1978 112.806V112.396H98.0009V112.806ZM108.568 108.418H19.4428C20.3705 90.6994 33.4796 84.0338 36.626 82.6955C46.4847 86.7291 50.3548 100.053 50.377 100.191C50.4934 100.608 50.7423 100.976 51.0859 101.239C51.4294 101.501 51.8489 101.644 52.2805 101.645H75.7306C76.1625 101.645 76.5826 101.503 76.9264 101.24C77.2702 100.978 77.5188 100.609 77.6341 100.191C77.6712 100.053 81.4893 86.7403 91.3851 82.6955C94.5316 84.0338 107.641 90.6994 108.568 108.418ZM81.6674 36.0029H103.24V38.3814C103.224 41.3686 102.092 44.2409 100.07 46.4305C98.0469 48.6201 95.2802 49.9675 92.3164 50.2064C90.5902 44.3353 86.8076 39.2902 81.6674 36.0029ZM99.7967 51.7908C101.149 50.9186 102.36 49.8437 103.388 48.6034L110.327 55.5747C109.034 56.551 107.97 57.8007 107.21 59.2355L99.7967 51.7908Z" fill="black"/>
</svg>
