<svg width="576" height="165" viewBox="0 0 576 165" fill="none" xmlns="http://www.w3.org/2000/svg">
<path d="M168.15 67.2355C166.775 67.2537 165.409 67.4544 164.086 67.8324L151.949 55.6325C153.429 52.593 154.207 49.2572 154.225 45.8736V39.6324C154.225 38.879 153.927 38.1564 153.397 37.6237C152.866 37.0909 152.147 36.7916 151.397 36.7916H116.667V15.8775H124.268V23.659C124.268 24.4124 124.566 25.135 125.097 25.6677C125.627 26.2005 126.346 26.4998 127.096 26.4998C127.846 26.4998 128.565 26.2005 129.095 25.6677C129.625 25.135 129.923 24.4124 129.923 23.659V2.87277C129.923 2.11934 129.625 1.39678 129.095 0.864032C128.565 0.331282 127.846 0.0319825 127.096 0.0319825C126.346 0.0319825 125.627 0.331282 125.097 0.864032C124.566 1.39678 124.268 2.11934 124.268 2.87277V10.2119H116.667V2.84079C116.667 2.46754 116.595 2.09782 116.453 1.75284C116.311 1.40786 116.103 1.09442 115.84 0.830485C115.577 0.566554 115.265 0.35733 114.922 0.214816C114.579 0.0723023 114.211 -0.000697249 113.839 5.01912e-06H71.1142C70.7427 -0.000697249 70.3747 0.0723023 70.0314 0.214816C69.688 0.35733 69.3761 0.566554 69.1134 0.830485C68.8507 1.09442 68.6424 1.40786 68.5006 1.75284C68.3587 2.09782 68.2861 2.46754 68.2868 2.84079V10.1799H60.685V2.84079C60.685 2.08737 60.3871 1.3648 59.8568 0.832051C59.3266 0.2993 58.6074 5.01912e-06 57.8575 5.01912e-06C57.1076 5.01912e-06 56.3885 0.2993 55.8582 0.832051C55.328 1.3648 55.0301 2.08737 55.0301 2.84079V23.627C55.0301 24.3804 55.328 25.103 55.8582 25.6358C56.3885 26.1685 57.1076 26.4678 57.8575 26.4678C58.6074 26.4678 59.3266 26.1685 59.8568 25.6358C60.3871 25.103 60.685 24.3804 60.685 23.627V15.8775H68.2868V36.8076H33.5562C32.8063 36.8076 32.0871 37.1069 31.5569 37.6397C31.0266 38.1724 30.7287 38.895 30.7287 39.6484V45.8896C30.7467 49.2732 31.5246 52.609 33.0045 55.6485L20.8618 67.8324C19.5412 67.4544 18.1766 67.2537 16.8036 67.2355C12.6052 67.2397 8.58002 68.9172 5.61132 71.8999C2.64263 74.8826 0.972963 78.9268 0.96875 83.1449C0.96875 83.8983 1.26664 84.6209 1.79689 85.1536C2.32715 85.6864 3.04632 85.9857 3.79621 85.9857C4.5461 85.9857 5.26528 85.6864 5.79553 85.1536C6.32578 84.6209 6.62368 83.8983 6.62368 83.1449C6.62368 81.122 7.22072 79.1446 8.3393 77.4626C9.45789 75.7806 11.0478 74.4697 12.9079 73.6956C14.7681 72.9214 16.8149 72.7189 18.7896 73.1135C20.7643 73.5082 22.5782 74.4823 24.0019 75.9127C25.4256 77.3431 26.3951 79.1655 26.7879 81.1495C27.1807 83.1336 26.9791 85.19 26.2086 87.0589C25.4381 88.9278 24.1334 90.5252 22.4593 91.6491C20.7852 92.7729 18.817 93.3728 16.8036 93.3728C16.0537 93.3728 15.3345 93.6721 14.8043 94.2048C14.274 94.7376 13.9761 95.4602 13.9761 96.2136C13.9761 96.967 14.274 97.6896 14.8043 98.2223C15.3345 98.7551 16.0537 99.0544 16.8036 99.0544C21.002 99.0501 25.0272 97.3726 27.9959 94.3899C30.9646 91.4072 32.6342 87.3631 32.6385 83.1449C32.6385 82.7239 32.5483 82.3241 32.5165 81.9084L46.6591 67.6991C46.7121 67.6458 46.7333 67.5712 46.7811 67.5126C48.1103 67.9193 49.4741 68.2012 50.8552 68.3547C50.6505 69.8741 50.5424 71.4051 50.5316 72.9383V104.278C44.1075 107.3 23.0421 119.425 23.0421 148.845C23.0414 149.219 23.114 149.589 23.2558 149.934C23.3975 150.279 23.6057 150.593 23.8683 150.858C24.131 151.122 24.4429 151.332 24.7863 151.475C25.1297 151.618 25.4978 151.691 25.8695 151.691H38.2191V152.278C38.2191 155.652 39.5532 158.888 41.9279 161.274C44.3026 163.66 47.5234 165 50.8817 165C54.24 165 57.4608 163.66 59.8355 161.274C62.2102 158.888 63.5443 155.652 63.5443 152.278V151.691H79.7823V152.278C79.7823 155.652 81.1164 158.888 83.4911 161.274C85.8658 163.66 89.0866 165 92.4449 165C95.8032 165 99.024 163.66 101.399 161.274C103.773 158.888 105.107 155.652 105.107 152.278V151.691H121.409V152.278C121.409 155.652 122.743 158.888 125.118 161.274C127.493 163.66 130.713 165 134.072 165C137.43 165 140.651 163.66 143.026 161.274C145.4 158.888 146.734 155.652 146.734 152.278V151.691H159.084C159.456 151.691 159.824 151.618 160.167 151.475C160.511 151.332 160.822 151.122 161.085 150.858C161.348 150.593 161.556 150.279 161.698 149.934C161.839 149.589 161.912 149.219 161.911 148.845C161.911 119.425 140.846 107.273 134.422 104.278V72.9383C134.411 71.4051 134.303 69.8741 134.098 68.3547C135.479 68.2012 136.843 67.9193 138.172 67.5126C138.22 67.5712 138.241 67.6458 138.294 67.6991L152.421 81.9084C152.389 82.3241 152.299 82.7239 152.299 83.1449C152.303 87.3631 153.973 91.4072 156.942 94.3899C159.91 97.3726 163.936 99.0501 168.134 99.0544C168.884 99.0544 169.603 98.7551 170.133 98.2223C170.663 97.6896 170.961 96.967 170.961 96.2136C170.961 95.4602 170.663 94.7376 170.133 94.2048C169.603 93.6721 168.884 93.3728 168.134 93.3728C166.12 93.3728 164.152 92.7729 162.478 91.6491C160.804 90.5252 159.499 88.9278 158.729 87.0589C157.958 85.19 157.757 83.1336 158.15 81.1495C158.542 79.1655 159.512 77.3431 160.936 75.9127C162.359 74.4823 164.173 73.5082 166.148 73.1135C168.123 72.7189 170.169 72.9214 172.03 73.6956C173.89 74.4697 175.48 75.7806 176.598 77.4626C177.717 79.1446 178.314 81.122 178.314 83.1449C178.314 83.8983 178.612 84.6209 179.142 85.1536C179.672 85.6864 180.391 85.9857 181.141 85.9857C181.891 85.9857 182.61 85.6864 183.141 85.1536C183.671 84.6209 183.969 83.8983 183.969 83.1449C183.965 78.9295 182.297 74.8878 179.332 71.9055C176.367 68.9233 172.345 67.2439 168.15 67.2355ZM77.7771 130.617C75.8408 125.069 69.5281 110.076 56.1865 104.208V72.9383C56.1938 67.8559 57.4687 62.8564 59.8948 58.3966C62.3209 53.9369 65.8207 50.1591 70.0745 47.4086V81.5193C70.0815 87.4776 72.4408 93.1898 76.6347 97.4024C80.8286 101.615 86.5145 103.984 92.4449 103.99H92.5085C98.4389 103.984 104.125 101.615 108.319 97.4024C112.513 93.1898 114.872 87.4776 114.879 81.5193V47.4086C119.133 50.1591 122.633 53.9369 125.059 58.3966C127.485 62.8564 128.76 67.8559 128.767 72.9383V104.208C115.425 110.071 109.113 125.069 107.176 130.617H77.7771ZM98.4393 42.4732C102.131 42.4966 105.786 43.2012 109.224 44.5518V81.5087C109.218 85.9605 107.455 90.2284 104.322 93.3758C101.188 96.5233 96.9395 98.2933 92.5085 98.2975H92.4449C88.0139 98.2933 83.7655 96.5233 80.6318 93.3758C77.4981 90.2284 75.735 85.9605 75.7294 81.5087V44.5518C79.1673 43.2012 82.8228 42.4966 86.5141 42.4732H98.4393ZM73.9417 5.69756H111.012V36.8076H73.9417V5.69756ZM30.7075 75.7045C29.6196 73.6544 28.0988 71.8681 26.2515 70.4706L36.1715 60.5039C37.6419 62.2771 39.3736 63.8139 41.3065 65.0609L30.7075 75.7045ZM36.3837 45.8896V42.4732H67.2258C59.8769 47.173 54.469 54.3859 52.001 62.7797C47.7638 62.4381 43.8083 60.5117 40.9165 57.3813C38.0248 54.251 36.4072 50.1444 36.3837 45.8736V45.8896ZM57.8894 152.278C57.8894 154.145 57.151 155.936 55.8369 157.256C54.5227 158.577 52.7402 159.318 50.8817 159.318C49.0232 159.318 47.2407 158.577 45.9265 157.256C44.6124 155.936 43.8741 154.145 43.8741 152.278V151.691H57.8894V152.278ZM99.4525 152.278C99.4525 154.145 98.7142 155.936 97.4 157.256C96.0858 158.577 94.3034 159.318 92.4449 159.318C90.5863 159.318 88.8039 158.577 87.4897 157.256C86.1755 155.936 85.4372 154.145 85.4372 152.278V151.691H99.4525V152.278ZM141.079 152.278C141.079 154.145 140.341 155.936 139.027 157.256C137.713 158.577 135.93 159.318 134.072 159.318C132.213 159.318 130.431 158.577 129.117 157.256C127.802 155.936 127.064 154.145 127.064 152.278V151.691H141.079V152.278ZM156.187 146.005H28.7659C30.0921 120.672 48.834 111.142 53.3325 109.229C67.4274 114.996 72.9603 134.044 72.9921 134.242C73.1585 134.839 73.5144 135.365 74.0056 135.74C74.4968 136.115 75.0965 136.319 75.7135 136.32H109.24C109.857 136.321 110.458 136.118 110.949 135.742C111.441 135.367 111.796 134.84 111.961 134.242C112.014 134.044 117.473 115.012 131.621 109.229C136.119 111.142 154.861 120.672 156.187 146.005ZM117.728 42.4732H148.57V45.8736C148.546 50.1444 146.929 54.251 144.037 57.3813C141.145 60.5117 137.19 62.4381 132.952 62.7797C130.484 54.3859 125.077 47.173 117.728 42.4732ZM143.647 65.0449C145.58 63.7979 147.312 62.2611 148.782 60.4879L158.702 70.4546C156.853 71.8505 155.332 73.6372 154.246 75.6885L143.647 65.0449Z" fill="black"/>
<path d="M215.689 29L221.869 15H225.769L231.969 29H227.849L223.009 16.94H224.569L219.729 29H215.689ZM219.069 26.28L220.089 23.36H226.929L227.949 26.28H219.069Z" fill="black"/>
<path d="M242.368 29V18.14H238.068V15H250.608V18.14H246.328V29H242.368Z" fill="black"/>
<path d="M262.724 20.42H269.224V23.38H262.724V20.42ZM263.004 25.94H270.324V29H259.084V15H270.064V18.06H263.004V25.94Z" fill="black"/>
<path d="M279.521 29V15H283.481V25.86H290.161V29H279.521Z" fill="black"/>
<path d="M298.728 29V15H302.688V29H298.728Z" fill="black"/>
<path d="M316.145 20.42H322.645V23.38H316.145V20.42ZM316.425 25.94H323.745V29H312.505V15H323.485V18.06H316.425V25.94Z" fill="black"/>
<path d="M332.943 29V15H339.343C340.623 15 341.723 15.2067 342.643 15.62C343.576 16.0333 344.296 16.6333 344.803 17.42C345.31 18.1933 345.563 19.1133 345.563 20.18C345.563 21.2333 345.31 22.1467 344.803 22.92C344.296 23.68 343.576 24.2667 342.643 24.68C341.723 25.08 340.623 25.28 339.343 25.28H335.143L336.903 23.62V29H332.943ZM341.603 29L338.123 23.9H342.343L345.843 29H341.603ZM336.903 24.04L335.143 22.22H339.103C339.93 22.22 340.543 22.04 340.943 21.68C341.356 21.32 341.563 20.82 341.563 20.18C341.563 19.5267 341.356 19.02 340.943 18.66C340.543 18.3 339.93 18.12 339.103 18.12H335.143L336.903 16.3V24.04Z" fill="black"/>
<path d="M216.409 135.11C218.389 125.357 220.295 115.823 222.129 106.51C222.789 102.55 223.522 98.4433 224.329 94.19C225.135 89.8633 225.869 85.61 226.529 81.43C227.262 77.1767 227.922 73.1067 228.509 69.22C229.169 65.26 229.682 61.6667 230.049 58.44C234.229 57.12 238.739 56.1667 243.579 55.58C248.419 54.92 253.222 54.59 257.989 54.59C260.849 54.59 263.195 54.92 265.029 55.58C266.935 56.24 268.402 57.1933 269.429 58.44C270.529 59.6133 271.299 61.0067 271.739 62.62C272.179 64.2333 272.399 66.03 272.399 68.01C272.399 70.9433 271.885 73.84 270.859 76.7C269.832 79.4867 268.439 82.1633 266.679 84.73C264.992 87.2233 263.012 89.5333 260.739 91.66C258.539 93.7133 256.155 95.4 253.589 96.72C254.909 99.6533 256.302 102.88 257.769 106.4C259.309 109.847 260.739 113.147 262.059 116.3C263.525 119.967 265.029 123.633 266.569 127.3L249.519 133.24C248.052 128.18 246.732 123.413 245.559 118.94C245.045 117.107 244.532 115.237 244.019 113.33C243.505 111.35 243.029 109.517 242.589 107.83C242.149 106.07 241.782 104.53 241.489 103.21C241.195 101.89 241.012 100.863 240.939 100.13L239.509 100.57C239.069 102.917 238.519 105.777 237.859 109.15C237.272 112.523 236.722 115.787 236.209 118.94C235.549 122.68 234.889 126.53 234.229 130.49L216.409 135.11ZM242.259 87.37C243.652 87.2233 245.339 86.6367 247.319 85.61C249.372 84.5833 251.315 83.3733 253.149 81.98C254.982 80.5133 256.559 79.01 257.879 77.47C259.199 75.93 259.859 74.5733 259.859 73.4C259.859 72.5933 259.602 71.97 259.089 71.53C258.575 71.0167 257.842 70.65 256.889 70.43C256.009 70.1367 255.019 69.9533 253.919 69.88C252.819 69.8067 251.682 69.77 250.509 69.77C249.702 69.77 248.859 69.8067 247.979 69.88C247.172 69.88 246.439 69.88 245.779 69.88L242.259 87.37Z" fill="black"/>
<path d="M323.76 75.49C323.76 81.5033 323.1 87.1867 321.78 92.54C320.533 97.82 318.847 102.697 316.72 107.17C314.593 111.57 312.1 115.53 309.24 119.05C306.454 122.497 303.52 125.467 300.44 127.96C297.36 130.38 294.243 132.25 291.09 133.57C287.937 134.817 284.93 135.44 282.07 135.44C279.65 135.44 277.45 135 275.47 134.12C273.49 133.167 271.767 131.81 270.3 130.05C268.834 128.217 267.66 125.907 266.78 123.12C265.973 120.26 265.57 116.85 265.57 112.89C265.57 108.783 266.084 104.457 267.11 99.91C268.137 95.3633 269.53 90.8533 271.29 86.38C273.05 81.9067 275.213 77.6533 277.78 73.62C280.347 69.5867 283.17 66.03 286.25 62.95C289.33 59.7967 292.63 57.3033 296.15 55.47C299.67 53.6367 303.337 52.72 307.15 52.72C310.45 52.72 313.163 53.4167 315.29 54.81C317.49 56.13 319.177 57.89 320.35 60.09C321.597 62.2167 322.477 64.6367 322.99 67.35C323.504 70.0633 323.76 72.7767 323.76 75.49ZM281.96 110.03C281.96 110.837 282.107 111.68 282.4 112.56C282.693 113.44 283.097 114.21 283.61 114.87C284.124 115.53 284.747 116.117 285.48 116.63C286.287 117.07 287.13 117.29 288.01 117.29C291.31 117.29 294.243 116.153 296.81 113.88C299.377 111.607 301.503 108.82 303.19 105.52C304.877 102.22 306.16 98.7 307.04 94.96C307.993 91.22 308.47 87.81 308.47 84.73C308.47 83.85 308.397 82.8967 308.25 81.87C308.177 80.8433 307.957 79.89 307.59 79.01C307.297 78.13 306.784 77.3967 306.05 76.81C305.39 76.15 304.474 75.82 303.3 75.82C300.954 75.82 298.79 76.4067 296.81 77.58C294.83 78.7533 293.034 80.33 291.42 82.31C289.88 84.2167 288.523 86.4167 287.35 88.91C286.177 91.33 285.15 93.8233 284.27 96.39C283.463 98.8833 282.877 101.34 282.51 103.76C282.143 106.18 281.96 108.27 281.96 110.03Z" fill="black"/>
<path d="M366.128 107.39C366.128 110.397 365.505 113.183 364.258 115.75C363.012 118.317 361.325 120.663 359.198 122.79C357.072 124.843 354.578 126.677 351.718 128.29C348.932 129.83 345.962 131.15 342.808 132.25C339.728 133.277 336.538 134.083 333.238 134.67C330.012 135.183 326.895 135.44 323.888 135.44C321.175 135.44 318.645 135.22 316.298 134.78C319.818 121.947 322.605 109.04 324.658 96.06C326.785 83.0067 328.802 69.88 330.708 56.68C334.522 55.8733 338.482 55.1767 342.588 54.59C346.695 53.93 350.948 53.6 355.348 53.6C357.182 53.6 359.125 53.82 361.178 54.26C363.232 54.7 365.102 55.5067 366.788 56.68C368.475 57.8533 369.868 59.3933 370.968 61.3C372.142 63.2067 372.728 65.6267 372.728 68.56C372.728 71.3467 372.252 73.95 371.298 76.37C370.418 78.79 369.245 80.99 367.778 82.97C366.385 84.95 364.772 86.6733 362.938 88.14C361.105 89.5333 359.235 90.5967 357.328 91.33C358.282 91.8433 359.272 92.5767 360.298 93.53C361.325 94.4833 362.278 95.62 363.158 96.94C364.038 98.1867 364.735 99.69 365.248 101.45C365.835 103.21 366.128 105.19 366.128 107.39ZM340.938 95.95C340.645 97.71 340.352 99.2867 340.058 100.68C339.838 102 339.618 103.283 339.398 104.53C339.178 105.777 338.922 107.097 338.628 108.49C338.408 109.81 338.152 111.387 337.858 113.22C339.252 113.073 340.828 112.817 342.588 112.45C344.348 112.083 346.035 111.533 347.648 110.8C349.262 109.993 350.618 108.967 351.718 107.72C352.818 106.4 353.368 104.823 353.368 102.99C353.368 101.67 353.002 100.57 352.268 99.69C351.608 98.81 350.728 98.0767 349.628 97.49C348.602 96.9033 347.465 96.5 346.218 96.28C344.972 95.9867 343.798 95.84 342.698 95.84C342.332 95.84 342.002 95.84 341.708 95.84C341.488 95.84 341.232 95.8767 340.938 95.95ZM345.888 69.33C345.742 70.1367 345.558 71.09 345.338 72.19C345.192 73.29 345.008 74.4633 344.788 75.71C344.568 76.8833 344.312 78.0567 344.018 79.23C343.798 80.4033 343.615 81.43 343.468 82.31C345.082 82.0167 346.695 81.6133 348.308 81.1C349.922 80.5867 351.352 80.0367 352.598 79.45C353.918 78.79 354.945 78.0933 355.678 77.36C356.485 76.6267 356.888 75.82 356.888 74.94C356.888 73.84 356.558 72.96 355.898 72.3C355.238 71.5667 354.358 70.98 353.258 70.54C352.232 70.1 351.132 69.8067 349.958 69.66C348.858 69.44 347.868 69.33 346.988 69.33H345.888Z" fill="black"/>
<path d="M425.059 75.49C425.059 81.5033 424.399 87.1867 423.079 92.54C421.832 97.82 420.146 102.697 418.019 107.17C415.892 111.57 413.399 115.53 410.539 119.05C407.752 122.497 404.819 125.467 401.739 127.96C398.659 130.38 395.542 132.25 392.389 133.57C389.236 134.817 386.229 135.44 383.369 135.44C380.949 135.44 378.749 135 376.769 134.12C374.789 133.167 373.066 131.81 371.599 130.05C370.132 128.217 368.959 125.907 368.079 123.12C367.272 120.26 366.869 116.85 366.869 112.89C366.869 108.783 367.382 104.457 368.409 99.91C369.436 95.3633 370.829 90.8533 372.589 86.38C374.349 81.9067 376.512 77.6533 379.079 73.62C381.646 69.5867 384.469 66.03 387.549 62.95C390.629 59.7967 393.929 57.3033 397.449 55.47C400.969 53.6367 404.636 52.72 408.449 52.72C411.749 52.72 414.462 53.4167 416.589 54.81C418.789 56.13 420.476 57.89 421.649 60.09C422.896 62.2167 423.776 64.6367 424.289 67.35C424.802 70.0633 425.059 72.7767 425.059 75.49ZM383.259 110.03C383.259 110.837 383.406 111.68 383.699 112.56C383.992 113.44 384.396 114.21 384.909 114.87C385.422 115.53 386.046 116.117 386.779 116.63C387.586 117.07 388.429 117.29 389.309 117.29C392.609 117.29 395.542 116.153 398.109 113.88C400.676 111.607 402.802 108.82 404.489 105.52C406.176 102.22 407.459 98.7 408.339 94.96C409.292 91.22 409.769 87.81 409.769 84.73C409.769 83.85 409.696 82.8967 409.549 81.87C409.476 80.8433 409.256 79.89 408.889 79.01C408.596 78.13 408.082 77.3967 407.349 76.81C406.689 76.15 405.772 75.82 404.599 75.82C402.252 75.82 400.089 76.4067 398.109 77.58C396.129 78.7533 394.332 80.33 392.719 82.31C391.179 84.2167 389.822 86.4167 388.649 88.91C387.476 91.33 386.449 93.8233 385.569 96.39C384.762 98.8833 384.176 101.34 383.809 103.76C383.442 106.18 383.259 108.27 383.259 110.03Z" fill="black"/>
<path d="M457.857 108.82C455.29 108.747 452.834 108.673 450.487 108.6C448.214 108.527 445.867 108.49 443.447 108.49C441.1 108.417 439.12 108.38 437.507 108.38C436.187 108.38 434.647 108.417 432.887 108.49C431.2 108.49 429.477 108.527 427.717 108.6C425.957 108.673 424.124 108.71 422.217 108.71L427.497 89.24C429.477 89.3133 431.347 89.3867 433.107 89.46C434.94 89.5333 436.774 89.6067 438.607 89.68C440.44 89.68 441.98 89.68 443.227 89.68C444.767 89.68 446.6 89.68 448.727 89.68C450.854 89.6067 452.944 89.5333 454.997 89.46C457.124 89.3867 459.324 89.2767 461.597 89.13L457.857 108.82Z" fill="black"/>
<path d="M467.246 135.11C468.932 127.043 470.546 119.087 472.086 111.24C472.746 107.94 473.406 104.493 474.066 100.9C474.726 97.3067 475.349 93.7867 475.936 90.34C476.596 86.82 477.146 83.4467 477.586 80.22C478.099 76.92 478.539 73.9133 478.906 71.2C477.219 70.98 475.496 70.9067 473.736 70.98C472.049 71.0533 470.362 70.8333 468.676 70.32C468.749 69.1467 468.786 67.79 468.786 66.25C468.786 64.71 468.822 63.17 468.896 61.63C468.969 59.9433 469.042 58.1467 469.116 56.24C471.022 56.3867 472.929 56.4967 474.836 56.57C476.742 56.6433 478.649 56.68 480.556 56.68C484.296 56.68 487.889 56.6067 491.336 56.46C494.856 56.24 498.082 56.02 501.016 55.8C504.022 55.5067 506.956 55.1767 509.816 54.81L508.606 60.75C508.239 62.4367 507.872 64.16 507.506 65.92C507.212 67.68 506.919 69.1833 506.626 70.43C505.012 70.87 503.362 71.2 501.676 71.42C500.062 71.5667 498.449 71.7867 496.836 72.08C496.322 74.5733 495.772 77.36 495.186 80.44C494.599 83.4467 494.012 86.6 493.426 89.9C492.912 93.1267 492.399 96.4267 491.886 99.8C491.372 103.173 490.859 106.4 490.346 109.48C489.172 116.74 488.072 124.257 487.046 132.03L467.246 135.11Z" fill="black"/>
<path d="M515.899 132.8C515.239 132.8 513.919 132.91 511.939 133.13C510.033 133.277 508.053 133.497 505.999 133.79C503.946 134.01 502.076 134.23 500.389 134.45C498.776 134.67 497.896 134.817 497.749 134.89C498.483 131.737 499.216 128.253 499.949 124.44C500.756 120.553 501.563 116.52 502.369 112.34C503.176 108.087 503.946 103.797 504.679 99.47C505.413 95.1433 506.109 90.9633 506.769 86.93C508.309 77.5433 509.849 67.9 511.389 58L528.549 55.25C526.863 65.0767 525.213 74.72 523.599 84.18C522.939 88.2133 522.243 92.3933 521.509 96.72C520.849 101.047 520.153 105.337 519.419 109.59C518.759 113.843 518.136 117.987 517.549 122.02C516.963 125.98 516.413 129.573 515.899 132.8Z" fill="black"/>
<path d="M566.406 111.35C564.646 115.383 562.666 118.903 560.466 121.91C558.339 124.843 556.066 127.337 553.646 129.39C551.299 131.37 548.916 132.837 546.496 133.79C544.076 134.743 541.729 135.22 539.456 135.22C537.182 135.22 535.092 134.707 533.186 133.68C531.352 132.653 529.739 131.113 528.346 129.06C526.952 127.007 525.816 124.477 524.936 121.47C524.129 118.463 523.726 114.943 523.726 110.91C523.726 104.017 524.679 97.2333 526.586 90.56C528.492 83.8133 531.169 77.7633 534.616 72.41C538.062 67.0567 542.132 62.7667 546.826 59.54C551.592 56.24 556.836 54.59 562.556 54.59C564.316 54.59 566.002 54.9567 567.616 55.69C569.229 56.4233 570.622 57.45 571.796 58.77C572.969 60.09 573.886 61.7033 574.546 63.61C575.279 65.5167 575.646 67.6433 575.646 69.99C575.646 70.43 575.646 70.9067 575.646 71.42C575.646 71.86 575.609 72.3367 575.536 72.85L561.126 76.7C560.246 74.8667 559.219 73.95 558.046 73.95C556.872 73.95 555.626 74.6467 554.306 76.04C553.059 77.36 551.812 79.12 550.566 81.32C549.319 83.4467 548.109 85.8667 546.936 88.58C545.762 91.22 544.736 93.8967 543.856 96.61C542.976 99.3233 542.242 101.927 541.656 104.42C541.142 106.84 540.886 108.82 540.886 110.36C540.886 112.707 541.179 114.357 541.766 115.31C542.426 116.263 543.269 116.74 544.296 116.74C545.102 116.74 546.019 116.447 547.046 115.86C548.072 115.2 549.026 114.393 549.906 113.44C550.786 112.413 551.592 111.277 552.326 110.03C553.059 108.783 553.572 107.537 553.866 106.29L566.406 111.35Z" fill="black"/>
<path fill-rule="evenodd" clip-rule="evenodd" d="M90.9688 18C90.9688 21.866 87.8347 25 83.9688 25C80.1028 25 76.9688 21.866 76.9688 18C76.9688 14.134 80.1028 11 83.9688 11C87.8347 11 90.9688 14.134 90.9688 18ZM86.9688 18C86.9688 19.6569 85.6256 21 83.9688 21C82.3119 21 80.9688 19.6569 80.9688 18C80.9688 16.3431 82.3119 15 83.9688 15C85.6256 15 86.9688 16.3431 86.9688 18Z" fill="black"/>
<path fill-rule="evenodd" clip-rule="evenodd" d="M107.969 18C107.969 21.866 104.835 25 100.969 25C97.1028 25 93.9688 21.866 93.9688 18C93.9688 14.134 97.1028 11 100.969 11C104.835 11 107.969 14.134 107.969 18ZM103.969 18C103.969 19.6569 102.626 21 100.969 21C99.3119 21 97.9688 19.6569 97.9688 18C97.9688 16.3431 99.3119 15 100.969 15C102.626 15 103.969 16.3431 103.969 18Z" fill="black"/>
</svg>
