<svg width="575" height="165" viewBox="0 0 575 165" fill="none" xmlns="http://www.w3.org/2000/svg">
<path d="M167.181 67.2355C165.806 67.2537 164.44 67.4544 163.118 67.8324L150.98 55.6325C152.46 52.593 153.238 49.2572 153.256 45.8736V39.6324C153.256 38.879 152.958 38.1564 152.428 37.6237C151.898 37.0909 151.178 36.7916 150.428 36.7916H115.698V15.8775H123.3V23.659C123.3 24.4124 123.598 25.135 124.128 25.6677C124.658 26.2005 125.377 26.4998 126.127 26.4998C126.877 26.4998 127.596 26.2005 128.126 25.6677C128.657 25.135 128.955 24.4124 128.955 23.659V2.87277C128.955 2.11934 128.657 1.39678 128.126 0.864032C127.596 0.331282 126.877 0.0319825 126.127 0.0319825C125.377 0.0319825 124.658 0.331282 124.128 0.864032C123.598 1.39678 123.3 2.11934 123.3 2.87277V10.2119H115.698V2.84079C115.699 2.46754 115.626 2.09782 115.484 1.75284C115.342 1.40786 115.134 1.09442 114.871 0.830485C114.609 0.566554 114.297 0.35733 113.953 0.214816C113.61 0.0723023 113.242 -0.000697249 112.87 5.01912e-06H70.1455C69.774 -0.000697249 69.406 0.0723023 69.0626 0.214816C68.7193 0.35733 68.4073 0.566554 68.1446 0.830485C67.8819 1.09442 67.6737 1.40786 67.5318 1.75284C67.39 2.09782 67.3173 2.46754 67.318 2.84079V10.1799H59.7162V2.84079C59.7162 2.08737 59.4183 1.3648 58.8881 0.832051C58.3578 0.2993 57.6387 5.01912e-06 56.8888 5.01912e-06C56.1389 5.01912e-06 55.4197 0.2993 54.8895 0.832051C54.3592 1.3648 54.0613 2.08737 54.0613 2.84079V23.627C54.0613 24.3804 54.3592 25.103 54.8895 25.6358C55.4197 26.1685 56.1389 26.4678 56.8888 26.4678C57.6387 26.4678 58.3578 26.1685 58.8881 25.6358C59.4183 25.103 59.7162 24.3804 59.7162 23.627V15.8775H67.318V36.8076H32.5874C31.8376 36.8076 31.1184 37.1069 30.5881 37.6397C30.0579 38.1724 29.76 38.895 29.76 39.6484V45.8896C29.7779 49.2732 30.5559 52.609 32.0357 55.6485L19.893 67.8324C18.5724 67.4544 17.2079 67.2537 15.8349 67.2355C11.6365 67.2397 7.61127 68.9172 4.64257 71.8999C1.67388 74.8826 0.00421312 78.9268 0 83.1449C0 83.8983 0.297892 84.6209 0.828144 85.1536C1.3584 85.6864 2.07757 85.9857 2.82746 85.9857C3.57735 85.9857 4.29653 85.6864 4.82678 85.1536C5.35703 84.6209 5.65493 83.8983 5.65493 83.1449C5.65493 81.122 6.25197 79.1446 7.37055 77.4626C8.48914 75.7806 10.079 74.4697 11.9392 73.6956C13.7993 72.9214 15.8461 72.7189 17.8209 73.1135C19.7956 73.5082 21.6095 74.4823 23.0332 75.9127C24.4568 77.3431 25.4264 79.1655 25.8192 81.1495C26.212 83.1336 26.0104 85.19 25.2399 87.0589C24.4694 88.9278 23.1646 90.5252 21.4905 91.6491C19.8164 92.7729 17.8483 93.3728 15.8349 93.3728C15.085 93.3728 14.3658 93.6721 13.8355 94.2048C13.3053 94.7376 13.0074 95.4602 13.0074 96.2136C13.0074 96.967 13.3053 97.6896 13.8355 98.2223C14.3658 98.7551 15.085 99.0544 15.8349 99.0544C20.0332 99.0501 24.0584 97.3726 27.0271 94.3899C29.9958 91.4072 31.6655 87.3631 31.6697 83.1449C31.6697 82.7239 31.5795 82.3241 31.5477 81.9084L45.6903 67.6991C45.7434 67.6458 45.7646 67.5712 45.8123 67.5126C47.1415 67.9193 48.5054 68.2012 49.8864 68.3547C49.6818 69.8741 49.5737 71.4051 49.5628 72.9383V104.278C43.1387 107.3 22.0733 119.425 22.0733 148.845C22.0726 149.219 22.1452 149.589 22.287 149.934C22.4288 150.279 22.637 150.593 22.8996 150.858C23.1622 151.122 23.4741 151.332 23.8175 151.475C24.1609 151.618 24.529 151.691 24.9008 151.691H37.2504V152.278C37.2504 155.652 38.5845 158.888 40.9592 161.274C43.3339 163.66 46.5546 165 49.9129 165C53.2713 165 56.4921 163.66 58.8667 161.274C61.2414 158.888 62.5755 155.652 62.5755 152.278V151.691H78.8136V152.278C78.8136 155.652 80.1476 158.888 82.5223 161.274C84.897 163.66 88.1178 165 91.4761 165C94.8345 165 98.0552 163.66 100.43 161.274C102.805 158.888 104.139 155.652 104.139 152.278V151.691H120.44V152.278C120.44 155.652 121.774 158.888 124.149 161.274C126.524 163.66 129.745 165 133.103 165C136.461 165 139.682 163.66 142.057 161.274C144.431 158.888 145.766 155.652 145.766 152.278V151.691H158.115C158.487 151.691 158.855 151.618 159.198 151.475C159.542 151.332 159.854 151.122 160.116 150.858C160.379 150.593 160.587 150.279 160.729 149.934C160.871 149.589 160.943 149.219 160.943 148.845C160.943 119.425 139.877 107.273 133.453 104.278V72.9383C133.442 71.4051 133.334 69.8741 133.129 68.3547C134.511 68.2012 135.874 67.9193 137.204 67.5126C137.251 67.5712 137.273 67.6458 137.326 67.6991L151.452 81.9084C151.42 82.3241 151.33 82.7239 151.33 83.1449C151.335 87.3631 153.004 91.4072 155.973 94.3899C158.942 97.3726 162.967 99.0501 167.165 99.0544C167.915 99.0544 168.634 98.7551 169.164 98.2223C169.695 97.6896 169.993 96.967 169.993 96.2136C169.993 95.4602 169.695 94.7376 169.164 94.2048C168.634 93.6721 167.915 93.3728 167.165 93.3728C165.152 93.3728 163.184 92.7729 161.509 91.6491C159.835 90.5252 158.531 88.9278 157.76 87.0589C156.99 85.19 156.788 83.1336 157.181 81.1495C157.574 79.1655 158.543 77.3431 159.967 75.9127C161.391 74.4823 163.204 73.5082 165.179 73.1135C167.154 72.7189 169.201 72.9214 171.061 73.6956C172.921 74.4697 174.511 75.7806 175.629 77.4626C176.748 79.1446 177.345 81.122 177.345 83.1449C177.345 83.8983 177.643 84.6209 178.173 85.1536C178.703 85.6864 179.423 85.9857 180.173 85.9857C180.922 85.9857 181.642 85.6864 182.172 85.1536C182.702 84.6209 183 83.8983 183 83.1449C182.996 78.9295 181.328 74.8878 178.363 71.9055C175.398 68.9233 171.377 67.2439 167.181 67.2355ZM76.8083 130.617C74.8721 125.069 68.5594 110.076 55.2178 104.208V72.9383C55.225 67.8559 56.5 62.8564 58.926 58.3966C61.3521 53.9369 64.852 50.1591 69.1058 47.4086V81.5193C69.1128 87.4776 71.4721 93.1898 75.666 97.4024C79.8599 101.615 85.5458 103.984 91.4761 103.99H91.5398C97.4701 103.984 103.156 101.615 107.35 97.4024C111.544 93.1898 113.903 87.4776 113.91 81.5193V47.4086C118.164 50.1591 121.664 53.9369 124.09 58.3966C126.516 62.8564 127.791 67.8559 127.798 72.9383V104.208C114.457 110.071 108.144 125.069 106.208 130.617H76.8083ZM97.4706 42.4732C101.162 42.4966 104.817 43.2012 108.255 44.5518V81.5087C108.25 85.9605 106.487 90.2284 103.353 93.3758C100.219 96.5233 95.9708 98.2933 91.5398 98.2975H91.4761C87.0451 98.2933 82.7967 96.5233 79.663 93.3758C76.5294 90.2284 74.7663 85.9605 74.7607 81.5087V44.5518C78.1985 43.2012 81.8541 42.4966 85.5453 42.4732H97.4706ZM72.973 5.69756H110.043V36.8076H72.973V5.69756ZM29.7388 75.7045C28.6509 73.6544 27.13 71.8681 25.2827 70.4706L35.2027 60.5039C36.6731 62.2771 38.4048 63.8139 40.3378 65.0609L29.7388 75.7045ZM35.4149 45.8896V42.4732H66.2571C58.9082 47.173 53.5003 54.3859 51.0323 62.7797C46.795 62.4381 42.8395 60.5117 39.9478 57.3813C37.056 54.251 35.4385 50.1444 35.4149 45.8736V45.8896ZM56.9206 152.278C56.9206 154.145 56.1823 155.936 54.8681 157.256C53.5539 158.577 51.7715 159.318 49.9129 159.318C48.0544 159.318 46.272 158.577 44.9578 157.256C43.6436 155.936 42.9053 154.145 42.9053 152.278V151.691H56.9206V152.278ZM98.4838 152.278C98.4838 154.145 97.7455 155.936 96.4313 157.256C95.1171 158.577 93.3347 159.318 91.4761 159.318C89.6176 159.318 87.8352 158.577 86.521 157.256C85.2068 155.936 84.4685 154.145 84.4685 152.278V151.691H98.4838V152.278ZM140.111 152.278C140.111 154.145 139.372 155.936 138.058 157.256C136.744 158.577 134.962 159.318 133.103 159.318C131.244 159.318 129.462 158.577 128.148 157.256C126.834 155.936 126.095 154.145 126.095 152.278V151.691H140.111V152.278ZM155.219 146.005H27.7972C29.1234 120.672 47.8653 111.142 52.3638 109.229C66.4587 114.996 71.9916 134.044 72.0234 134.242C72.1898 134.839 72.5456 135.365 73.0368 135.74C73.528 136.115 74.1277 136.319 74.7448 136.32H108.271C108.889 136.321 109.489 136.118 109.981 135.742C110.472 135.367 110.828 134.84 110.993 134.242C111.046 134.044 116.504 115.012 130.652 109.229C135.151 111.142 153.893 120.672 155.219 146.005ZM116.759 42.4732H147.601V45.8736C147.577 50.1444 145.96 54.251 143.068 57.3813C140.176 60.5117 136.221 62.4381 131.984 62.7797C129.516 54.3859 124.108 47.173 116.759 42.4732ZM142.678 65.0449C144.611 63.7979 146.343 62.2611 147.813 60.4879L157.733 70.4546C155.884 71.8505 154.363 73.6372 153.277 75.6885L142.678 65.0449Z" fill="white"/>
<path d="M214.72 29L220.9 15H224.8L231 29H226.88L222.04 16.94H223.6L218.76 29H214.72ZM218.1 26.28L219.12 23.36H225.96L226.98 26.28H218.1Z" fill="white"/>
<path d="M241.4 29V18.14H237.1V15H249.64V18.14H245.36V29H241.4Z" fill="white"/>
<path d="M261.755 20.42H268.255V23.38H261.755V20.42ZM262.035 25.94H269.355V29H258.115V15H269.095V18.06H262.035V25.94Z" fill="white"/>
<path d="M278.552 29V15H282.512V25.86H289.192V29H278.552Z" fill="white"/>
<path d="M297.759 29V15H301.719V29H297.759Z" fill="white"/>
<path d="M315.177 20.42H321.677V23.38H315.177V20.42ZM315.457 25.94H322.777V29H311.537V15H322.517V18.06H315.457V25.94Z" fill="white"/>
<path d="M331.974 29V15H338.374C339.654 15 340.754 15.2067 341.674 15.62C342.608 16.0333 343.328 16.6333 343.834 17.42C344.341 18.1933 344.594 19.1133 344.594 20.18C344.594 21.2333 344.341 22.1467 343.834 22.92C343.328 23.68 342.608 24.2667 341.674 24.68C340.754 25.08 339.654 25.28 338.374 25.28H334.174L335.934 23.62V29H331.974ZM340.634 29L337.154 23.9H341.374L344.874 29H340.634ZM335.934 24.04L334.174 22.22H338.134C338.961 22.22 339.574 22.04 339.974 21.68C340.388 21.32 340.594 20.82 340.594 20.18C340.594 19.5267 340.388 19.02 339.974 18.66C339.574 18.3 338.961 18.12 338.134 18.12H334.174L335.934 16.3V24.04Z" fill="white"/>
<path d="M215.44 135.11C217.42 125.357 219.327 115.823 221.16 106.51C221.82 102.55 222.553 98.4433 223.36 94.19C224.167 89.8633 224.9 85.61 225.56 81.43C226.293 77.1767 226.953 73.1067 227.54 69.22C228.2 65.26 228.713 61.6667 229.08 58.44C233.26 57.12 237.77 56.1667 242.61 55.58C247.45 54.92 252.253 54.59 257.02 54.59C259.88 54.59 262.227 54.92 264.06 55.58C265.967 56.24 267.433 57.1933 268.46 58.44C269.56 59.6133 270.33 61.0067 270.77 62.62C271.21 64.2333 271.43 66.03 271.43 68.01C271.43 70.9433 270.917 73.84 269.89 76.7C268.863 79.4867 267.47 82.1633 265.71 84.73C264.023 87.2233 262.043 89.5333 259.77 91.66C257.57 93.7133 255.187 95.4 252.62 96.72C253.94 99.6533 255.333 102.88 256.8 106.4C258.34 109.847 259.77 113.147 261.09 116.3C262.557 119.967 264.06 123.633 265.6 127.3L248.55 133.24C247.083 128.18 245.763 123.413 244.59 118.94C244.077 117.107 243.563 115.237 243.05 113.33C242.537 111.35 242.06 109.517 241.62 107.83C241.18 106.07 240.813 104.53 240.52 103.21C240.227 101.89 240.043 100.863 239.97 100.13L238.54 100.57C238.1 102.917 237.55 105.777 236.89 109.15C236.303 112.523 235.753 115.787 235.24 118.94C234.58 122.68 233.92 126.53 233.26 130.49L215.44 135.11ZM241.29 87.37C242.683 87.2233 244.37 86.6367 246.35 85.61C248.403 84.5833 250.347 83.3733 252.18 81.98C254.013 80.5133 255.59 79.01 256.91 77.47C258.23 75.93 258.89 74.5733 258.89 73.4C258.89 72.5933 258.633 71.97 258.12 71.53C257.607 71.0167 256.873 70.65 255.92 70.43C255.04 70.1367 254.05 69.9533 252.95 69.88C251.85 69.8067 250.713 69.77 249.54 69.77C248.733 69.77 247.89 69.8067 247.01 69.88C246.203 69.88 245.47 69.88 244.81 69.88L241.29 87.37Z" fill="white"/>
<path d="M322.791 75.49C322.791 81.5033 322.131 87.1867 320.811 92.54C319.565 97.82 317.878 102.697 315.751 107.17C313.625 111.57 311.131 115.53 308.271 119.05C305.485 122.497 302.551 125.467 299.471 127.96C296.391 130.38 293.275 132.25 290.121 133.57C286.968 134.817 283.961 135.44 281.101 135.44C278.681 135.44 276.481 135 274.501 134.12C272.521 133.167 270.798 131.81 269.331 130.05C267.865 128.217 266.691 125.907 265.811 123.12C265.005 120.26 264.601 116.85 264.601 112.89C264.601 108.783 265.115 104.457 266.141 99.91C267.168 95.3633 268.561 90.8533 270.321 86.38C272.081 81.9067 274.245 77.6533 276.811 73.62C279.378 69.5867 282.201 66.03 285.281 62.95C288.361 59.7967 291.661 57.3033 295.181 55.47C298.701 53.6367 302.368 52.72 306.181 52.72C309.481 52.72 312.195 53.4167 314.321 54.81C316.521 56.13 318.208 57.89 319.381 60.09C320.628 62.2167 321.508 64.6367 322.021 67.35C322.535 70.0633 322.791 72.7767 322.791 75.49ZM280.991 110.03C280.991 110.837 281.138 111.68 281.431 112.56C281.725 113.44 282.128 114.21 282.641 114.87C283.155 115.53 283.778 116.117 284.511 116.63C285.318 117.07 286.161 117.29 287.041 117.29C290.341 117.29 293.275 116.153 295.841 113.88C298.408 111.607 300.535 108.82 302.221 105.52C303.908 102.22 305.191 98.7 306.071 94.96C307.025 91.22 307.501 87.81 307.501 84.73C307.501 83.85 307.428 82.8967 307.281 81.87C307.208 80.8433 306.988 79.89 306.621 79.01C306.328 78.13 305.815 77.3967 305.081 76.81C304.421 76.15 303.505 75.82 302.331 75.82C299.985 75.82 297.821 76.4067 295.841 77.58C293.861 78.7533 292.065 80.33 290.451 82.31C288.911 84.2167 287.555 86.4167 286.381 88.91C285.208 91.33 284.181 93.8233 283.301 96.39C282.495 98.8833 281.908 101.34 281.541 103.76C281.175 106.18 280.991 108.27 280.991 110.03Z" fill="white"/>
<path d="M365.159 107.39C365.159 110.397 364.536 113.183 363.289 115.75C362.043 118.317 360.356 120.663 358.229 122.79C356.103 124.843 353.609 126.677 350.749 128.29C347.963 129.83 344.993 131.15 341.839 132.25C338.759 133.277 335.569 134.083 332.269 134.67C329.043 135.183 325.926 135.44 322.919 135.44C320.206 135.44 317.676 135.22 315.329 134.78C318.849 121.947 321.636 109.04 323.689 96.06C325.816 83.0067 327.833 69.88 329.739 56.68C333.553 55.8733 337.513 55.1767 341.619 54.59C345.726 53.93 349.979 53.6 354.379 53.6C356.213 53.6 358.156 53.82 360.209 54.26C362.263 54.7 364.133 55.5067 365.819 56.68C367.506 57.8533 368.899 59.3933 369.999 61.3C371.173 63.2067 371.759 65.6267 371.759 68.56C371.759 71.3467 371.283 73.95 370.329 76.37C369.449 78.79 368.276 80.99 366.809 82.97C365.416 84.95 363.803 86.6733 361.969 88.14C360.136 89.5333 358.266 90.5967 356.359 91.33C357.313 91.8433 358.303 92.5767 359.329 93.53C360.356 94.4833 361.309 95.62 362.189 96.94C363.069 98.1867 363.766 99.69 364.279 101.45C364.866 103.21 365.159 105.19 365.159 107.39ZM339.969 95.95C339.676 97.71 339.383 99.2867 339.089 100.68C338.869 102 338.649 103.283 338.429 104.53C338.209 105.777 337.953 107.097 337.659 108.49C337.439 109.81 337.183 111.387 336.889 113.22C338.283 113.073 339.859 112.817 341.619 112.45C343.379 112.083 345.066 111.533 346.679 110.8C348.293 109.993 349.649 108.967 350.749 107.72C351.849 106.4 352.399 104.823 352.399 102.99C352.399 101.67 352.033 100.57 351.299 99.69C350.639 98.81 349.759 98.0767 348.659 97.49C347.633 96.9033 346.496 96.5 345.249 96.28C344.003 95.9867 342.829 95.84 341.729 95.84C341.363 95.84 341.033 95.84 340.739 95.84C340.519 95.84 340.263 95.8767 339.969 95.95ZM344.919 69.33C344.773 70.1367 344.589 71.09 344.369 72.19C344.223 73.29 344.039 74.4633 343.819 75.71C343.599 76.8833 343.343 78.0567 343.049 79.23C342.829 80.4033 342.646 81.43 342.499 82.31C344.113 82.0167 345.726 81.6133 347.339 81.1C348.953 80.5867 350.383 80.0367 351.629 79.45C352.949 78.79 353.976 78.0933 354.709 77.36C355.516 76.6267 355.919 75.82 355.919 74.94C355.919 73.84 355.589 72.96 354.929 72.3C354.269 71.5667 353.389 70.98 352.289 70.54C351.263 70.1 350.163 69.8067 348.989 69.66C347.889 69.44 346.899 69.33 346.019 69.33H344.919Z" fill="white"/>
<path d="M424.09 75.49C424.09 81.5033 423.43 87.1867 422.11 92.54C420.864 97.82 419.177 102.697 417.05 107.17C414.924 111.57 412.43 115.53 409.57 119.05C406.784 122.497 403.85 125.467 400.77 127.96C397.69 130.38 394.574 132.25 391.42 133.57C388.267 134.817 385.26 135.44 382.4 135.44C379.98 135.44 377.78 135 375.8 134.12C373.82 133.167 372.097 131.81 370.63 130.05C369.164 128.217 367.99 125.907 367.11 123.12C366.304 120.26 365.9 116.85 365.9 112.89C365.9 108.783 366.414 104.457 367.44 99.91C368.467 95.3633 369.86 90.8533 371.62 86.38C373.38 81.9067 375.544 77.6533 378.11 73.62C380.677 69.5867 383.5 66.03 386.58 62.95C389.66 59.7967 392.96 57.3033 396.48 55.47C400 53.6367 403.667 52.72 407.48 52.72C410.78 52.72 413.494 53.4167 415.62 54.81C417.82 56.13 419.507 57.89 420.68 60.09C421.927 62.2167 422.807 64.6367 423.32 67.35C423.834 70.0633 424.09 72.7767 424.09 75.49ZM382.29 110.03C382.29 110.837 382.437 111.68 382.73 112.56C383.024 113.44 383.427 114.21 383.94 114.87C384.454 115.53 385.077 116.117 385.81 116.63C386.617 117.07 387.46 117.29 388.34 117.29C391.64 117.29 394.574 116.153 397.14 113.88C399.707 111.607 401.834 108.82 403.52 105.52C405.207 102.22 406.49 98.7 407.37 94.96C408.324 91.22 408.8 87.81 408.8 84.73C408.8 83.85 408.727 82.8967 408.58 81.87C408.507 80.8433 408.287 79.89 407.92 79.01C407.627 78.13 407.114 77.3967 406.38 76.81C405.72 76.15 404.804 75.82 403.63 75.82C401.284 75.82 399.12 76.4067 397.14 77.58C395.16 78.7533 393.364 80.33 391.75 82.31C390.21 84.2167 388.854 86.4167 387.68 88.91C386.507 91.33 385.48 93.8233 384.6 96.39C383.794 98.8833 383.207 101.34 382.84 103.76C382.474 106.18 382.29 108.27 382.29 110.03Z" fill="white"/>
<path d="M456.888 108.82C454.322 108.747 451.865 108.673 449.518 108.6C447.245 108.527 444.898 108.49 442.478 108.49C440.132 108.417 438.152 108.38 436.538 108.38C435.218 108.38 433.678 108.417 431.918 108.49C430.232 108.49 428.508 108.527 426.748 108.6C424.988 108.673 423.155 108.71 421.248 108.71L426.528 89.24C428.508 89.3133 430.378 89.3867 432.138 89.46C433.972 89.5333 435.805 89.6067 437.638 89.68C439.472 89.68 441.012 89.68 442.258 89.68C443.798 89.68 445.632 89.68 447.758 89.68C449.885 89.6067 451.975 89.5333 454.028 89.46C456.155 89.3867 458.355 89.2767 460.628 89.13L456.888 108.82Z" fill="white"/>
<path d="M466.277 135.11C467.964 127.043 469.577 119.087 471.117 111.24C471.777 107.94 472.437 104.493 473.097 100.9C473.757 97.3067 474.38 93.7867 474.967 90.34C475.627 86.82 476.177 83.4467 476.617 80.22C477.13 76.92 477.57 73.9133 477.937 71.2C476.25 70.98 474.527 70.9067 472.767 70.98C471.08 71.0533 469.394 70.8333 467.707 70.32C467.78 69.1467 467.817 67.79 467.817 66.25C467.817 64.71 467.854 63.17 467.927 61.63C468 59.9433 468.074 58.1467 468.147 56.24C470.054 56.3867 471.96 56.4967 473.867 56.57C475.774 56.6433 477.68 56.68 479.587 56.68C483.327 56.68 486.92 56.6067 490.367 56.46C493.887 56.24 497.114 56.02 500.047 55.8C503.054 55.5067 505.987 55.1767 508.847 54.81L507.637 60.75C507.27 62.4367 506.904 64.16 506.537 65.92C506.244 67.68 505.95 69.1833 505.657 70.43C504.044 70.87 502.394 71.2 500.707 71.42C499.094 71.5667 497.48 71.7867 495.867 72.08C495.354 74.5733 494.804 77.36 494.217 80.44C493.63 83.4467 493.044 86.6 492.457 89.9C491.944 93.1267 491.43 96.4267 490.917 99.8C490.404 103.173 489.89 106.4 489.377 109.48C488.204 116.74 487.104 124.257 486.077 132.03L466.277 135.11Z" fill="white"/>
<path d="M514.93 132.8C514.27 132.8 512.95 132.91 510.97 133.13C509.064 133.277 507.084 133.497 505.03 133.79C502.977 134.01 501.107 134.23 499.42 134.45C497.807 134.67 496.927 134.817 496.78 134.89C497.514 131.737 498.247 128.253 498.98 124.44C499.787 120.553 500.594 116.52 501.4 112.34C502.207 108.087 502.977 103.797 503.71 99.47C504.444 95.1433 505.14 90.9633 505.8 86.93C507.34 77.5433 508.88 67.9 510.42 58L527.58 55.25C525.894 65.0767 524.244 74.72 522.63 84.18C521.97 88.2133 521.274 92.3933 520.54 96.72C519.88 101.047 519.184 105.337 518.45 109.59C517.79 113.843 517.167 117.987 516.58 122.02C515.994 125.98 515.444 129.573 514.93 132.8Z" fill="white"/>
<path d="M565.437 111.35C563.677 115.383 561.697 118.903 559.497 121.91C557.37 124.843 555.097 127.337 552.677 129.39C550.33 131.37 547.947 132.837 545.527 133.79C543.107 134.743 540.76 135.22 538.487 135.22C536.213 135.22 534.123 134.707 532.217 133.68C530.383 132.653 528.77 131.113 527.377 129.06C525.983 127.007 524.847 124.477 523.967 121.47C523.16 118.463 522.757 114.943 522.757 110.91C522.757 104.017 523.71 97.2333 525.617 90.56C527.523 83.8133 530.2 77.7633 533.647 72.41C537.093 67.0567 541.163 62.7667 545.857 59.54C550.623 56.24 555.867 54.59 561.587 54.59C563.347 54.59 565.033 54.9567 566.647 55.69C568.26 56.4233 569.653 57.45 570.827 58.77C572 60.09 572.917 61.7033 573.577 63.61C574.31 65.5167 574.677 67.6433 574.677 69.99C574.677 70.43 574.677 70.9067 574.677 71.42C574.677 71.86 574.64 72.3367 574.567 72.85L560.157 76.7C559.277 74.8667 558.25 73.95 557.077 73.95C555.903 73.95 554.657 74.6467 553.337 76.04C552.09 77.36 550.843 79.12 549.597 81.32C548.35 83.4467 547.14 85.8667 545.967 88.58C544.793 91.22 543.767 93.8967 542.887 96.61C542.007 99.3233 541.273 101.927 540.687 104.42C540.173 106.84 539.917 108.82 539.917 110.36C539.917 112.707 540.21 114.357 540.797 115.31C541.457 116.263 542.3 116.74 543.327 116.74C544.133 116.74 545.05 116.447 546.077 115.86C547.103 115.2 548.057 114.393 548.937 113.44C549.817 112.413 550.623 111.277 551.357 110.03C552.09 108.783 552.603 107.537 552.897 106.29L565.437 111.35Z" fill="white"/>
<path fill-rule="evenodd" clip-rule="evenodd" d="M90 18C90 21.866 86.866 25 83 25C79.134 25 76 21.866 76 18C76 14.134 79.134 11 83 11C86.866 11 90 14.134 90 18ZM86 18C86 19.6569 84.6569 21 83 21C81.3431 21 80 19.6569 80 18C80 16.3431 81.3431 15 83 15C84.6569 15 86 16.3431 86 18Z" fill="white"/>
<path fill-rule="evenodd" clip-rule="evenodd" d="M107 18C107 21.866 103.866 25 100 25C96.134 25 93 21.866 93 18C93 14.134 96.134 11 100 11C103.866 11 107 14.134 107 18ZM103 18C103 19.6569 101.657 21 100 21C98.3431 21 97 19.6569 97 18C97 16.3431 98.3431 15 100 15C101.657 15 103 16.3431 103 18Z" fill="white"/>
</svg>
